<svg xmlns="http://www.w3.org/2000/svg" width="1280" height="277.164" viewBox="0 0 1280 277.164">
  <g id="bg-top" fill="#0d81fa" opacity="0.574">
    <path d="M 172.2166595458984 276.663818359375 C 146.8551635742188 276.663818359375 105.5439987182617 276.3026428222656 52.76350021362305 274.5821533203125 C 23.81925201416016 273.6387023925781 3.786660194396973 272.6839294433594 0.5 272.5239562988281 L 0.5 0.4999732673168182 L 1279.5 0.4999732673168182 L 1279.5 53.2794189453125 C 1269.228149414062 55.70549011230469 1062.90673828125 104.419792175293 847.3145141601562 154.4439697265625 C 718.065673828125 184.4339752197266 610.82666015625 209.0189666748047 528.576171875 227.5163116455078 C 425.7713317871094 250.6361389160156 361.9450073242188 264.2548217773438 338.8698425292969 267.9942932128906 C 319.7300109863281 271.0959777832031 294.2291564941406 273.3979797363281 263.0756530761719 274.8366394042969 C 236.8188323974609 276.0489807128906 206.2493286132812 276.663818359375 172.2166595458984 276.663818359375 Z" stroke="none"/>
    <path d="M 1 0.999969482421875 L 1 272.0474853515625 C 5.4310302734375 272.2610473632812 25.003173828125 273.177001953125 52.7847900390625 274.0826416015625 C 105.5562744140625 275.8027954101562 146.85986328125 276.163818359375 172.2166748046875 276.163818359375 C 206.24169921875 276.163818359375 236.8033447265625 275.5491333007812 263.0526733398438 274.3371276855469 C 294.1871948242188 272.8994750976562 319.6688232421875 270.5993041992188 338.7898559570312 267.5006408691406 C 361.85498046875 263.7628173828125 425.6713256835938 250.1459655761719 528.4661865234375 227.0284729003906 C 610.7155151367188 208.5314636230469 717.9534912109375 183.9466400146484 847.201171875 153.9569702148438 C 1060.535888671875 104.45654296875 1264.794921875 56.23829650878906 1279 52.88383483886719 L 1279 0.999969482421875 L 1 0.999969482421875 M 0 -3.0517578125e-05 L 1280 -3.0517578125e-05 L 1280 53.67514038085938 C 1280 53.67514038085938 440.1573486328125 252.0866394042969 338.9498291015625 268.48779296875 C 297.6427001953125 275.1818237304688 233.565185546875 277.163818359375 172.216796875 277.163818359375 C 83.253662109375 277.163818359375 0 272.9999694824219 0 272.9999694824219 L 0 -3.0517578125e-05 Z" stroke="none" fill="#707070"/>
  </g>
</svg>
